<?xml version="1.0" standalone="no"?>
<!DOCTYPE svg PUBLIC "-//W3C//DTD SVG 20010904//EN"
 "http://www.w3.org/TR/2001/REC-SVG-20010904/DTD/svg10.dtd">
<svg version="1.0" xmlns="http://www.w3.org/2000/svg"
 width="1024.000000pt" height="1024.000000pt" viewBox="0 0 1024.000000 1024.000000"
 preserveAspectRatio="xMidYMid meet">

<g transform="translate(0.000000,1024.000000) scale(0.100000,-0.100000)"
fill="#000000" stroke="none">
<path d="M2721 5848 c-5 -13 -14 -61 -21 -108 -6 -47 -18 -122 -26 -168 -17
-91 -14 -112 15 -112 24 0 28 12 36 101 8 91 13 119 23 119 4 0 27 -42 51 -92
74 -158 84 -159 151 -14 25 53 50 96 57 96 7 0 14 -23 18 -57 4 -32 10 -78 14
-103 l6 -45 45 0 45 0 -3 50 c-1 28 -7 77 -12 110 -5 33 -13 96 -17 139 -8 82
-23 106 -56 93 -9 -3 -44 -62 -77 -132 -34 -69 -65 -125 -69 -125 -7 0 -32 51
-97 197 -20 44 -47 73 -69 73 -3 0 -9 -10 -14 -22z"/>
<path d="M3690 5848 c-22 -15 -38 -38 -48 -66 -12 -38 -12 -47 2 -77 17 -36
50 -65 115 -104 48 -29 58 -53 37 -86 -20 -31 -46 -31 -97 -2 -34 19 -41 20
-49 7 -17 -26 -11 -50 16 -60 38 -15 121 -12 155 5 58 31 85 109 57 169 -11
25 -35 45 -93 77 -42 23 -69 62 -60 89 6 19 12 21 48 16 83 -12 91 -12 95 7
10 49 -117 66 -178 25z"/>
<path d="M4340 5849 c-86 -52 -120 -106 -120 -194 0 -130 81 -205 220 -205
122 0 206 60 230 163 22 102 -38 216 -129 245 -65 20 -160 16 -201 -9z m159
-32 c87 -44 94 -229 11 -302 -27 -24 -109 -27 -136 -4 -23 19 -54 94 -54 132
0 37 24 110 45 141 31 43 87 57 134 33z"/>
<path d="M3217 5854 c-4 -4 -7 -73 -7 -153 1 -167 11 -201 70 -233 48 -25 162
-25 210 1 65 34 75 66 75 236 l0 150 -25 0 -25 0 -6 -145 c-3 -89 -10 -155
-18 -172 -14 -27 -60 -51 -84 -43 -7 2 -24 6 -39 9 -45 10 -57 49 -65 208 l-8
143 -35 3 c-20 2 -39 0 -43 -4z"/>
<path d="M3957 5854 c-4 -4 -7 -94 -7 -201 l0 -193 111 0 c109 0 110 0 107 23
-3 20 -7 22 -61 19 l-58 -3 3 73 3 73 58 3 c54 3 58 5 55 25 -3 19 -10 22 -48
23 -74 2 -71 -1 -68 57 l3 52 58 3 c54 3 58 5 55 25 -3 21 -9 22 -104 25 -55
1 -103 0 -107 -4z"/>
<path d="M629 5392 c-54 -26 -67 -40 -118 -117 -42 -65 -45 -75 -45 -135 0
-75 12 -104 78 -177 32 -36 64 -58 108 -77 59 -25 71 -27 193 -24 l130 3 0 25
c0 38 -67 64 -199 79 -120 13 -151 25 -190 71 -59 71 -9 164 126 234 62 32 76
32 135 0 59 -33 163 -105 163 -113 0 -3 25 -33 56 -66 77 -84 114 -139 114
-171 0 -15 -20 -68 -44 -118 -56 -118 -97 -246 -143 -444 -8 -32 41 -126 73
-141 24 -11 29 -9 60 24 19 20 34 40 34 45 0 5 22 46 48 92 26 46 60 124 75
173 34 110 39 119 64 123 15 2 27 -7 42 -31 22 -36 26 -93 12 -177 -14 -88 25
-150 95 -150 29 0 39 7 70 50 50 69 63 69 166 0 55 -37 82 -50 111 -50 32 0
37 3 37 23 0 15 -16 33 -52 57 -98 68 -178 161 -178 209 0 6 -11 18 -24 26
-19 13 -35 14 -81 7 l-57 -9 -46 59 c-26 33 -70 90 -99 126 -29 37 -70 104
-93 150 -51 105 -98 168 -191 258 -66 62 -103 90 -214 159 -43 27 -167 31
-216 7z"/>
<path d="M7335 5282 c-95 -5 -185 -71 -276 -204 -53 -76 -72 -115 -93 -188
-25 -86 -50 -118 -110 -146 -79 -36 -148 -51 -272 -59 l-112 -7 -28 37 c-56
74 -125 85 -189 30 -82 -72 -122 -113 -183 -190 -41 -51 -75 -84 -95 -91 -18
-7 -88 -15 -157 -19 -129 -7 -197 3 -273 42 -37 19 -67 70 -67 115 0 34 7 42
117 135 64 54 147 125 185 159 82 73 130 92 187 76 50 -16 144 -15 159 0 23
23 14 91 -18 140 -36 54 -60 66 -158 78 -85 11 -107 6 -212 -49 -159 -84 -213
-128 -354 -291 -99 -115 -140 -156 -201 -201 -46 -34 -280 -176 -370 -225 -76
-41 -208 -84 -258 -84 -76 0 -142 49 -167 125 -7 22 -23 41 -41 50 -31 16 -32
20 -29 73 3 66 -93 119 -137 74 -10 -9 -35 -38 -56 -63 -77 -95 -161 -128
-328 -129 -163 0 -224 42 -224 156 0 34 5 72 12 85 21 44 43 122 43 155 0 47
49 94 99 94 44 0 125 -26 161 -50 43 -30 96 -30 105 1 14 43 -91 111 -215 139
-58 13 -100 42 -100 70 0 9 -11 27 -25 40 -22 20 -27 21 -54 10 -16 -6 -54
-10 -83 -8 -51 3 -53 2 -56 -24 -2 -16 0 -28 5 -28 14 0 73 -57 73 -70 0 -7
-13 -34 -28 -59 -34 -56 -49 -106 -57 -190 -15 -156 -131 -306 -307 -397 -46
-24 -73 -11 -156 78 l-76 80 -43 -6 c-24 -3 -54 -13 -68 -22 -47 -31 -94 -5
-150 82 -55 86 -211 184 -292 184 -41 0 -95 -36 -169 -112 -135 -140 -144
-153 -144 -206 0 -54 41 -136 87 -172 25 -20 36 -22 101 -16 88 7 131 25 196
83 26 24 57 43 68 43 28 0 72 -25 99 -57 26 -31 86 -63 116 -63 28 1 96 34
134 67 57 50 82 50 131 2 71 -69 110 -89 173 -89 78 0 150 39 255 139 47 44
90 80 95 81 6 0 44 -27 86 -59 42 -32 92 -64 110 -69 67 -21 192 -32 234 -21
104 28 130 21 167 -40 60 -100 91 -105 165 -25 29 31 58 54 65 52 7 -3 21 -21
31 -41 9 -20 20 -37 25 -38 11 0 162 -20 205 -26 24 -3 50 1 71 11 19 9 40 16
48 16 24 0 112 36 155 63 24 15 45 27 49 27 10 0 186 120 234 160 49 40 101
70 122 70 35 -1 84 -66 128 -173 27 -66 38 -81 74 -102 38 -22 54 -25 144 -25
109 0 153 7 273 46 101 32 121 31 153 -7 14 -17 26 -36 26 -43 0 -16 47 -60
87 -80 70 -35 140 -7 214 86 50 63 75 115 89 189 6 30 13 64 15 76 7 30 37 37
80 18 21 -8 50 -15 65 -15 31 0 164 41 229 71 40 19 45 19 61 4 10 -9 20 -34
24 -56 15 -92 83 -186 152 -210 53 -18 216 -16 274 3 25 9 72 23 105 33 33 10
74 30 90 44 17 15 43 36 59 46 29 17 30 17 46 -3 10 -11 20 -43 23 -70 11 -95
75 -180 127 -167 52 13 82 55 126 177 25 70 35 75 97 50 72 -30 137 -29 193 4
57 34 67 29 178 -81 45 -44 93 -88 108 -98 61 -38 122 -13 203 86 48 58 60 67
88 67 40 0 62 -22 103 -100 55 -107 67 -113 187 -83 50 11 73 23 84 40 8 12
24 23 35 23 17 0 19 -5 16 -37 -5 -40 -25 -124 -38 -158 -13 -32 -30 -148 -30
-198 0 -24 -7 -67 -15 -93 -8 -27 -26 -89 -41 -139 -40 -137 -124 -344 -161
-399 -45 -67 -46 -134 -3 -194 23 -32 37 -42 58 -42 34 0 52 16 52 47 0 36 35
128 67 176 28 41 41 73 77 202 10 33 21 71 26 85 4 14 13 45 20 70 7 25 22 72
33 105 10 33 32 111 48 173 28 110 64 220 95 292 25 58 36 84 44 105 23 61 33
79 72 121 23 25 59 54 79 65 70 35 87 87 47 146 -28 41 -48 48 -92 32 -28 -10
-43 -10 -78 1 -24 7 -47 17 -52 22 -22 18 -63 7 -95 -26 -24 -25 -44 -35 -75
-38 -63 -7 -115 -36 -172 -95 -28 -29 -59 -53 -67 -53 -9 0 -24 17 -33 38 -27
59 -53 82 -93 82 -76 0 -154 -35 -267 -121 -99 -76 -139 -88 -150 -45 -3 13 2
41 11 62 20 47 14 73 -26 119 -32 36 -70 46 -107 25 -43 -24 -119 -40 -189
-40 l-77 0 -47 51 c-68 74 -80 69 -146 -61 -86 -167 -106 -174 -142 -55 -28
93 -66 139 -108 129 -15 -4 -66 -32 -113 -63 -47 -31 -121 -71 -165 -90 -44
-18 -88 -37 -98 -42 -31 -16 -130 -21 -148 -7 -32 26 -49 76 -49 144 0 60 3
69 28 90 75 66 167 135 216 164 107 61 206 205 206 300 0 86 -60 120 -195 112z
m43 -125 c4 -22 -201 -217 -214 -204 -4 3 7 23 22 44 16 21 36 47 44 58 33 45
122 126 133 122 7 -2 13 -11 15 -20z m-4916 -523 c12 -8 -11 -44 -29 -44 -8 0
-49 -34 -90 -75 -40 -41 -80 -75 -88 -75 -8 0 -15 -4 -15 -10 0 -22 -40 -9
-46 15 -7 30 20 77 75 128 67 62 101 79 145 72 22 -3 43 -8 48 -11z m3876 -92
c6 -80 -94 -222 -157 -222 -58 0 -52 26 34 155 86 128 117 146 123 67z m-2120
-114 c-2 -25 -8 -33 -23 -33 -23 0 -32 30 -15 50 22 27 42 18 38 -17z"/>
<path d="M8394 5086 c-3 -8 -4 -25 -2 -38 2 -18 9 -23 33 -23 36 0 45 27 19
56 -20 23 -42 25 -50 5z"/>
</g>
</svg>
