<?xml version="1.0" standalone="no"?>
<!DOCTYPE svg PUBLIC "-//W3C//DTD SVG 20010904//EN"
 "http://www.w3.org/TR/2001/REC-SVG-20010904/DTD/svg10.dtd">
<svg version="1.0" xmlns="http://www.w3.org/2000/svg"
 width="858.000000pt" height="616.000000pt" viewBox="0 0 858.000000 616.000000"
 preserveAspectRatio="xMidYMid meet">
<metadata>
Created by potrace 1.15, written by Peter Selinger 2001-2017
</metadata>
<g transform="translate(0.000000,616.000000) scale(0.100000,-0.100000)"
fill="#000000" stroke="none">
<path d="M5083 4064 c-33 -16 -63 -66 -63 -104 0 -29 23 -70 55 -100 15 -14
36 -42 45 -64 17 -37 18 -37 25 -15 4 13 24 42 45 64 47 50 60 75 60 115 0 46
-27 90 -65 106 -43 18 -62 17 -102 -2z m90 -48 c24 -20 29 -31 31 -75 l1 -51
-67 0 c-37 0 -70 5 -73 10 -3 6 -1 10 4 10 14 0 14 53 0 67 -8 8 0 18 27 37
21 14 41 26 44 26 3 -1 18 -11 33 -24z"/>
</g>
</svg>
