<?xml version="1.0" standalone="no"?>
<!DOCTYPE svg PUBLIC "-//W3C//DTD SVG 20010904//EN"
 "http://www.w3.org/TR/2001/REC-SVG-20010904/DTD/svg10.dtd">
<svg version="1.0" xmlns="http://www.w3.org/2000/svg"
 width="350.000000pt" height="144.000000pt" viewBox="0 0 350.000000 144.000000"
 preserveAspectRatio="xMidYMid meet">

<g transform="translate(0.000000,144.000000) scale(0.100000,-0.100000)"
fill="#000000" stroke="none">
<path d="M0 899 c0 -353 4 -547 10 -560 7 -13 7 -19 0 -19 -5 0 -10 -18 -10
-40 0 -38 2 -40 30 -40 33 0 33 0 34 105 1 58 2 60 29 63 27 3 27 3 27 -57 0
-32 3 -66 6 -75 5 -13 -1 -16 -27 -16 -18 0 -30 -3 -26 -6 3 -4 -3 -29 -14
-58 -44 -111 -57 -156 -52 -175 5 -21 9 -21 417 -21 l412 0 -4 36 c-5 45 3 51
79 53 56 2 60 0 54 -18 -8 -27 4 -71 21 -71 11 0 12 27 7 149 l-6 150 49 4 49
3 -47 2 c-44 2 -48 4 -48 27 0 21 5 25 29 25 52 0 61 8 61 56 0 32 5 46 16 51
9 3 67 0 128 -7 61 -7 137 -14 169 -17 31 -3 55 -8 53 -11 -2 -4 6 -8 17 -8
31 -2 127 -20 131 -25 2 -2 6 -17 10 -32 6 -27 6 -28 -27 -22 -24 5 -38 2 -50
-9 -17 -18 -42 -22 -32 -6 11 18 -46 32 -79 19 -63 -23 -77 -32 -64 -41 8 -5
1 -8 -19 -8 -63 0 -88 26 -30 32 25 3 28 6 14 12 -21 10 -79 -12 -70 -27 3 -5
1 -7 -5 -3 -6 3 -28 0 -49 -7 -22 -7 -52 -10 -70 -6 -34 7 -47 -6 -15 -14 10
-3 6 -5 -10 -6 -56 -2 -26 -21 35 -22 137 -3 247 -3 344 1 57 2 106 1 109 -3
6 -6 -20 -154 -28 -162 -2 -2 -106 -7 -231 -11 -125 -4 -227 -10 -227 -13 0
-3 87 -5 192 -5 106 1 175 -1 153 -3 -73 -8 -56 -18 25 -15 l79 3 3 -28 4 -28
12 28 12 28 100 -3 c73 -2 101 0 105 10 3 9 -12 12 -53 13 l-57 1 53 8 c89 13
72 22 -36 18 -116 -3 -109 -10 -91 88 7 32 19 65 27 71 9 8 41 13 76 12 l61
-1 -45 -10 c-25 -5 -55 -10 -67 -9 -13 0 -23 -3 -23 -7 0 -9 76 -9 86 0 4 5
17 8 30 8 12 0 24 6 27 13 3 8 8 9 15 2 6 -5 12 -55 13 -110 1 -55 4 -112 7
-127 l4 -28 179 0 c161 0 178 2 182 18 4 16 5 16 6 0 1 -15 11 -18 70 -18 46
0 71 4 74 13 4 10 6 10 6 0 1 -19 29 -15 34 5 4 16 5 16 6 0 1 -17 35 -18 566
-18 l565 0 0 720 0 720 -1750 0 -1750 0 0 -541z m1329 269 c1 -16 -3 -28 -9
-28 -5 0 -10 15 -11 33 l0 32 -16 -32 c-9 -18 -19 -33 -23 -33 -4 0 -14 15
-23 33 l-16 32 0 -32 c-1 -18 -4 -33 -9 -33 -10 0 -2 79 9 85 4 3 15 -8 24
-25 18 -35 27 -33 46 12 13 32 13 32 20 8 4 -14 7 -37 8 -52z m41 27 c0 -38 4
-47 23 -55 16 -6 17 -9 5 -9 -28 -1 -48 28 -48 70 0 21 5 39 10 39 6 0 10 -20
10 -45z m59 -49 c-9 -8 -10 -7 -5 7 3 10 7 35 8 55 1 35 2 35 5 -7 3 -26 -1
-48 -8 -55z m81 84 c0 -5 -7 -7 -15 -4 -23 9 -18 -15 7 -35 14 -12 19 -24 15
-35 -9 -23 -36 -31 -50 -16 -9 10 -7 11 9 6 32 -10 38 19 8 38 -26 18 -32 41
-11 49 21 9 37 8 37 -3z m63 0 c-15 -6 -21 -15 -17 -25 4 -9 13 -14 20 -11 8
3 14 2 14 -3 0 -5 -9 -11 -20 -14 -14 -3 -18 -10 -14 -22 4 -9 13 -14 20 -11
8 3 14 1 14 -4 0 -11 -11 -13 -34 -4 -12 4 -16 20 -16 55 0 47 1 49 28 48 26
0 26 -1 5 -9z m131 -6 c34 -33 4 -94 -46 -94 -24 0 -48 27 -48 55 0 13 7 31
16 39 8 9 26 16 39 16 13 0 31 -7 39 -16z m-667 -108 c16 -14 42 -45 58 -70
16 -25 36 -46 44 -47 9 0 27 -14 40 -31 23 -29 23 -30 4 -19 -12 6 -32 10 -45
8 -17 -1 -23 3 -24 21 -2 37 -10 35 -29 -8 -30 -66 -55 -48 -30 22 21 61 19
73 -16 102 -25 21 -34 24 -50 15 -27 -14 -20 -43 11 -47 38 -5 49 -22 15 -22
-57 0 -85 55 -43 84 29 21 31 20 65 -8z m1143 -25 c0 -11 -18 -34 -40 -51 -66
-53 -44 -90 31 -51 41 22 41 22 46 1 7 -26 20 -26 28 1 4 13 12 18 22 15 8 -3
30 -6 49 -6 27 0 34 -4 34 -20 0 -19 1 -19 35 2 35 20 36 20 50 2 8 -11 15
-14 15 -7 0 16 73 38 96 29 16 -6 15 -9 -5 -30 -12 -12 -38 -73 -59 -135 -20
-62 -41 -112 -47 -112 -13 2 -10 25 13 91 11 30 23 72 26 93 7 36 6 37 -14 25
-18 -11 -23 -10 -39 10 -15 21 -19 22 -30 8 -17 -20 -47 -21 -54 -2 -9 23 -85
19 -92 -5 -8 -25 -26 -24 -32 1 -4 16 -10 19 -27 13 -11 -4 -37 -7 -56 -8 -27
0 -37 5 -45 22 -7 17 -15 21 -30 16 -11 -3 -27 -6 -36 -5 -9 0 -23 -15 -32
-34 -18 -36 -37 -43 -56 -20 -8 9 -26 12 -61 8 -46 -4 -50 -3 -61 22 -7 14
-15 26 -18 26 -3 0 -26 -14 -51 -30 -45 -30 -110 -41 -110 -19 0 8 -5 7 -15
-1 -12 -10 -19 -10 -27 -2 -7 7 -26 12 -43 12 -17 0 -36 5 -43 12 -9 9 -20 7
-47 -8 -30 -16 -38 -17 -56 -6 -16 11 -24 11 -36 1 -12 -10 -19 -10 -35 0 -17
10 -25 10 -44 1 -51 -28 -74 18 -30 59 26 24 35 23 73 -12 12 -11 29 -17 37
-14 8 3 20 -1 26 -9 7 -8 18 -14 26 -14 20 0 54 41 54 66 0 13 5 26 10 29 8 5
7 11 -1 21 -9 11 -8 14 3 14 22 0 78 -30 78 -41 0 -6 -8 -5 -20 1 -26 14 -37
7 -45 -31 -11 -51 39 -67 88 -29 l26 20 17 -30 c10 -16 27 -30 37 -30 32 0 98
41 149 91 55 55 92 70 115 46 19 -19 10 -37 -16 -30 -24 6 -92 -52 -84 -73 3
-9 20 -14 47 -14 33 0 47 6 64 25 19 22 28 25 56 19 50 -9 72 2 101 51 21 37
31 45 55 45 23 0 30 -5 30 -19z m800 -21 c0 -5 -4 -10 -9 -10 -6 0 -13 5 -16
10 -3 6 1 10 9 10 9 0 16 -4 16 -10z m-35 -20 c4 -6 -1 -7 -10 -3 -10 3 -21 0
-25 -7 -5 -7 -13 -9 -21 -5 -9 6 -8 10 7 16 27 11 42 11 49 -1z m125 -17 c0
-3 -7 -3 -15 1 -8 3 -15 1 -15 -5 0 -6 -5 -7 -11 -3 -8 4 -7 9 2 14 12 8 39 3
39 -7z m-171 -17 c9 -10 9 -16 1 -21 -16 -10 -40 2 -40 20 0 19 24 20 39 1z
m-214 -36 c-14 -27 -14 -32 0 -54 15 -23 17 -23 46 -9 25 12 33 13 42 3 9 -10
9 -11 -1 -6 -8 5 -20 0 -30 -11 -11 -12 -30 -18 -57 -18 -40 0 -43 4 -29 39 6
15 4 17 -6 11 -15 -9 -10 1 22 48 26 36 32 35 13 -3z m155 -65 c0 -18 -11 -19
-34 -2 -16 11 -15 13 8 15 17 1 26 -3 26 -13z m145 -164 c3 -8 0 -18 -7 -23
-10 -6 -10 -8 -1 -8 7 0 17 -9 23 -20 8 -15 6 -29 -10 -59 -11 -22 -25 -43
-31 -47 -8 -5 -9 -3 -4 6 5 9 4 11 -3 6 -7 -4 -12 -14 -12 -21 0 -22 -58 -48
-89 -40 l-26 7 28 10 c21 8 26 15 23 34 -3 13 -2 23 2 23 18 -3 32 2 46 17 23
23 20 34 -11 34 -16 0 -37 7 -47 15 -13 10 -22 11 -26 5 -4 -6 -27 -12 -51
-13 -39 -2 -44 1 -47 20 -2 13 -13 30 -25 38 -15 10 -17 15 -6 15 8 0 25 -7
37 -16 20 -14 22 -14 22 3 0 10 4 24 9 32 7 11 13 11 32 -3 33 -23 50 -20 84
12 l30 28 27 -21 c15 -11 29 -26 33 -34z m283 -26 c-2 -12 -8 -5 -20 21 l-17
38 20 -21 c12 -11 19 -28 17 -38z m-2793 -25 c3 -5 2 -10 -4 -10 -5 0 -13 5
-16 10 -3 6 -2 10 4 10 5 0 13 -4 16 -10z m2248 -30 c3 -11 1 -18 -4 -14 -5 3
-9 12 -9 20 0 20 7 17 13 -6z m153 -7 c7 -10 14 -21 14 -24 0 -11 -88 -10 -96
2 -4 7 -3 9 4 5 6 -3 14 0 19 7 7 12 24 23 42 26 2 1 10 -7 17 -16z m-2322
-19 c3 -8 2 -12 -4 -9 -6 3 -10 10 -10 16 0 14 7 11 14 -7z m2058 -186 c-7 -7
-12 -8 -12 -2 0 14 12 26 19 19 2 -3 -1 -11 -7 -17z m59 -37 c7 11 9 11 9 -3
0 -23 5 -23 46 3 19 11 34 18 34 14 0 -12 -51 -93 -65 -105 -15 -13 -20 -1
-16 41 1 9 -5 19 -14 22 -11 5 -15 19 -13 49 l1 43 4 -39 c3 -29 7 -36 14 -25z
m302 39 c15 -5 41 -4 59 1 40 11 38 11 38 1 0 -4 -18 -13 -40 -18 -32 -9 -47
-8 -80 7 -38 17 -59 39 -22 24 9 -4 29 -11 45 -15z m-2445 -7 c-10 -2 -26 -2
-35 0 -10 3 -2 5 17 5 19 0 27 -2 18 -5z m2486 -31 c40 -3 54 -7 45 -13 -32
-20 -139 -2 -139 24 0 5 8 6 18 1 9 -4 44 -10 76 -12z m-986 -28 c1 -20 -3
-24 -27 -24 -21 0 -30 6 -34 22 -7 26 6 37 37 31 14 -3 22 -13 24 -29z m-102
-54 c1 -30 -1 -40 -3 -22 -4 32 -16 41 -28 22 -8 -13 -35 6 -35 24 0 19 23 37
45 34 17 -3 20 -11 21 -58z m1094 41 c49 -7 52 -8 27 -16 -36 -10 -109 5 -115
24 -4 10 0 12 14 6 11 -4 44 -10 74 -14z m-2843 -88 c-2 -21 -4 -6 -4 32 0 39
2 55 4 38 2 -18 2 -50 0 -70z m149 71 c1 -5 4 -30 7 -56 l5 -48 -39 0 c-32 0
-39 3 -39 20 0 11 7 20 15 20 11 0 15 11 15 39 0 31 3 39 17 37 9 -2 18 -7 19
-12z m427 4 l37 -2 1 -61 c0 -33 2 -105 4 -161 3 -92 -4 -138 -21 -122 -3 4
-10 40 -14 80 -7 63 -12 76 -39 100 -29 26 -31 32 -31 96 0 66 5 86 20 77 4
-2 23 -5 43 -7z m1031 6 c10 -4 16 -18 16 -40 0 -29 -3 -34 -22 -33 -22 0 -22
1 -3 9 14 6 -3 9 -52 9 -40 1 -73 5 -73 10 0 5 15 18 33 29 33 21 73 27 101
16z m-838 -17 c4 -4 9 -60 12 -126 l5 -119 -65 -4 -66 -3 -6 65 c-3 36 -6 96
-6 134 l0 68 60 -4 c33 -2 63 -7 66 -11z m1950 -43 c-19 -19 -21 -11 -4 16 7
11 14 16 16 10 2 -5 -4 -17 -12 -26z m138 25 c37 0 38 -1 17 -10 -28 -11 -108
-2 -118 14 -4 7 5 8 27 4 18 -4 51 -7 74 -8z m-1024 -27 c0 -13 -12 -22 -22
-16 -10 6 -1 24 13 24 5 0 9 -4 9 -8z m1055 -12 c4 -6 -17 -10 -54 -10 -34 0
-61 4 -61 10 0 6 24 10 54 10 30 0 58 -4 61 -10z m-25 -40 c0 -5 -15 -10 -34
-10 -19 0 -38 5 -41 10 -4 6 10 10 34 10 23 0 41 -4 41 -10z m-20 -39 c0 -14
-18 -23 -30 -16 -6 4 -8 11 -5 16 8 12 35 12 35 0z m-983 -63 c-2 -13 -4 -3
-4 22 0 25 2 35 4 23 2 -13 2 -33 0 -45z m0 -110 c-2 -13 -4 -3 -4 22 0 25 2
35 4 23 2 -13 2 -33 0 -45z m120 36 c-3 -3 -12 -4 -19 -1 -8 3 -5 6 6 6 11 1
17 -2 13 -5z m-577 -16 c0 -4 -7 -8 -15 -8 -8 0 -15 4 -15 8 0 5 7 9 15 9 8 0
15 -4 15 -9z m68 5 c-10 -2 -28 -2 -40 0 -13 2 -5 4 17 4 22 1 32 -1 23 -4z"/>
<path d="M1630 1206 c-12 -32 -4 -53 21 -61 29 -10 51 13 47 49 -2 25 -8 32
-30 34 -22 3 -30 -2 -38 -22z"/>
<path d="M2129 1073 c-13 -16 -12 -17 4 -4 16 13 21 21 13 21 -2 0 -10 -8 -17
-17z"/>
<path d="M1260 985 c-19 -23 -8 -26 19 -4 16 13 18 19 8 19 -8 0 -20 -7 -27
-15z"/>
<path d="M1952 970 c-6 -11 -12 -22 -12 -25 0 -11 20 6 30 26 14 25 -2 25 -18
-1z"/>
<path d="M2910 610 c0 -5 5 -10 11 -10 5 0 7 5 4 10 -3 6 -8 10 -11 10 -2 0
-4 -4 -4 -10z"/>
<path d="M1735 180 c-3 -5 1 -10 9 -10 9 0 16 5 16 10 0 6 -4 10 -9 10 -6 0
-13 -4 -16 -10z"/>
<path d="M1000 94 c0 -12 7 -15 25 -12 14 3 25 1 25 -3 0 -18 16 -8 17 11 1
16 -4 20 -33 20 -25 0 -34 -4 -34 -16z"/>
<path d="M890 70 c0 -5 5 -10 10 -10 6 0 10 5 10 10 0 6 -4 10 -10 10 -5 0
-10 -4 -10 -10z"/>
<path d="M1298 43 c12 -2 32 -2 45 0 12 2 2 4 -23 4 -25 0 -35 -2 -22 -4z"/>
</g>
</svg>
